# xmcd CD database file
# Copyright (C) 1993-1996 Ti Kan
#
# Track frame offsets:
#	150
#	10912
#	24580
#	38710
#	54920
#	68132
#	83137
#	98542
#	110225
#	126400
#	139365
#	153345
#	165567
#	178422
#
# Disc length: 2533 seconds
#
# Revision: 1
# Processed by: cddbd v1.4b41PL1 Copyright (c) Steve Scherf et al.
# Submitted via: CDValet v3.01 - Copyright (c) 1997 Greg Leichner
#
DISCID=ba09e30e
DTITLE=Delbert McClinton - Honky Tonk 'n Blues
DYEAR=1900
DGENRE=
TTITLE0=Victim Of Life's Circumstances
TTITLE1=Two More Bottles Of Wine
TTITLE2=Before You Accuse Me
TTITLE3=Under Suspicion
TTITLE4=(When She Wants Good Lovin') My Baby Comes To Me
TTITLE5=Honky Tonkin'
TTITLE6=Lovey Dovey
TTITLE7=It's Love Baby (24 Hours A Day)
TTITLE8=Love Rustler
TTITLE9=Lesson In The Pain Of Love
TTITLE10=Solid Gold Plated Fool
TTITLE11=Please, Please, Please
TTITLE12=Pledging My Love
TTITLE13=Special Love Song
EXTD=
EXTT0=
EXTT1=
EXTT2=
EXTT3=
EXTT4=
EXTT5=
EXTT6=
EXTT7=
EXTT8=
EXTT9=
EXTT10=
EXTT11=
EXTT12=
EXTT13=
PLAYORDER=
